# xmcd
#
# Track frame offsets:
#	150
#	18036
#	37498
#	55503
#	72873
#	91527
#	109686
#	129679
#	149503
#	171163
#	190756
#	208454
#
# Disc length: 3088 seconds
#
# Revision: 0
# Processed by: cddbd v1.5.2PL0 Copyright (c) Steve Scherf et al.
# Submitted via: EasyCDDAExtractor 10.0.6.1
#
DISCID=aa0c0e0c
DTITLE=양파 - the windows of my soul
DYEAR=2007
DGENRE=Ballad
TTITLE0=marry me
TTITLE1=나 때문에
TTITLE2=사랑.. 그게 뭔데
TTITLE3=한사람
TTITLE4=그대를 알고
TTITLE5=Love Letter
TTITLE6=la vie en rose
TTITLE7=울지 않는 법
TTITLE8=기억해
TTITLE9=잃어버린 시간을 찾아서
TTITLE10=그녀를 버려요
TTITLE11=친절하네요
EXTD=
EXTT0=
EXTT1=
EXTT2=
EXTT3=
EXTT4=
EXTT5=
EXTT6=
EXTT7=
EXTT8=
EXTT9=
EXTT10=
EXTT11=
PLAYORDER=
